<svg xmlns="http://www.w3.org/2000/svg" xmlns:xlink="http://www.w3.org/1999/xlink" viewBox="0,0,256,256" width="500px" height="500px"><g fill="#b2d8e9" fill-rule="nonzero" stroke="none" stroke-width="1" stroke-linecap="butt" stroke-linejoin="miter" stroke-miterlimit="10" stroke-dasharray="" stroke-dashoffset="0" font-family="none" font-weight="none" font-size="none" text-anchor="none" style="mix-blend-mode: normal"><g transform="scale(5.12,5.12)"><path d="M45.5293,12.51758l-5.10547,0.14648l1.44336,10.19727h7.5332c0.234,0 0.43781,-0.15095 0.50781,-0.37695c0.07,-0.224 -0.01022,-0.46356 -0.19922,-0.60156l-2.31836,-1.67187h-3.33008l-0.16797,-1.62891l2.33008,-0.07031c0.333,-0.011 0.61044,-0.27047 0.64844,-0.60547l0.08398,-0.73828l-0.20898,-0.48047c-0.14,-0.322 -0.45283,-0.5293 -0.79883,-0.5293h-0.01562l-2.46484,0.04883l-0.2207,-1.48047l2.45313,-0.11914c0.32,-0.016 0.57986,-0.25031 0.63086,-0.57031l0.10352,-0.62891l-0.21875,-0.46484c-0.125,-0.268 -0.40055,-0.43678 -0.68555,-0.42578zM4.42188,12.65234c-0.376,0 -0.70425,0.27244 -0.78125,0.64844l-1.45312,7.10156l-1.91406,1.4082c-0.2,0.146 -0.28398,0.40358 -0.20898,0.64258c0.075,0.242 0.29202,0.4043 0.54102,0.4043h3.79688l0.91992,-6.13281l0.87109,5.29102c0.081,0.489 0.49156,0.8457 0.97656,0.8457h0.61133c0.366,0 0.70337,-0.21959 0.85938,-0.55859l2.66211,-5.76562l-0.57617,6.32227h3.09961c0.223,0 0.41991,-0.13475 0.50391,-0.34375c0.083,-0.205 0.04067,-0.43961 -0.11133,-0.59961l-0.76758,-0.80273l0.69922,-7.71484c0.018,-0.189 -0.04492,-0.37853 -0.16992,-0.51953c-0.126,-0.144 -0.30609,-0.22656 -0.49609,-0.22656h-1.96289c-0.352,0 -0.67103,0.19853 -0.83203,0.51953l-2.49805,4.94727l-0.96875,-4.75781c-0.084,-0.411 -0.44252,-0.70898 -0.85352,-0.70898zM35.55664,12.74219c-0.193,0 -0.37777,0.08733 -0.50977,0.23633c-0.125,0.146 -0.19073,0.34016 -0.17773,0.53516l0.62695,8.70117c0.026,0.363 0.31802,0.64453 0.66602,0.64453h4.6875c0.186,0 0.36337,-0.08156 0.48438,-0.22656c0.119,-0.139 0.17716,-0.32567 0.16016,-0.51367l-0.12695,-1.30273c-0.038,-0.396 -0.35333,-0.69531 -0.73633,-0.69531h-2.78125l-0.54492,-6.71875c-0.03,-0.377 -0.32745,-0.66016 -0.68945,-0.66016zM31.68945,12.74414c-0.203,0 -0.39314,0.11192 -0.49414,0.29492c-0.097,0.176 -0.09695,0.39627 -0.00195,0.57227l0.50195,0.93359l0.33008,6.46484l-0.45508,0.99805c-0.084,0.184 -0.0737,0.39536 0.0293,0.56836c0.107,0.178 0.29309,0.2832 0.49609,0.2832h2.57422c0.213,0 0.409,-0.12817 0.5,-0.32617c0.09,-0.195 0.06355,-0.4218 -0.06445,-0.5918l-0.62109,-0.82617l-0.28516,-6.5957l0.35742,-0.89648c0.077,-0.193 0.05826,-0.41484 -0.05273,-0.58984c-0.115,-0.181 -0.30858,-0.28906 -0.51758,-0.28906zM24.90234,12.83203c-0.227,0 -0.44738,0.09577 -0.60937,0.25977c-0.162,0.165 -0.25,0.38223 -0.25,0.61523v8.33203c0,0.215 0.08442,0.42612 0.23242,0.57813c0.152,0.157 0.35622,0.24219 0.57422,0.24219h3.93359c2.065,-0.036 2.66502,-1.95689 2.66602,-1.96289c0.263,-0.716 0.07155,-1.72911 0.06055,-1.78711c-0.187,-0.995 -1.06736,-1.55308 -1.69336,-1.83008c0.792,-0.447 1.01577,-1.16562 1.00977,-1.51562c0.037,-0.236 0.036,-0.49792 0,-0.79492c-0.139,-1.468 -1.73552,-2.12372 -2.35352,-2.13672zM19.30664,12.85352c-1.293,-0.11 -2.54987,0.29276 -3.54687,1.13476c-1.027,0.866 -1.65553,2.08841 -1.76953,3.44141c-0.231,2.753 1.78047,5.18206 4.48047,5.41406c0.14,0.012 0.27897,0.01758 0.41797,0.01758c1.142,0 2.23891,-0.40134 3.12891,-1.15234c1.027,-0.866 1.65458,-2.08841 1.76758,-3.44141c0.23,-2.754 -1.77852,-5.18306 -4.47852,-5.41406zM27.69141,14.62695c0.149,0.107 0.55687,0.44202 0.54688,0.91602c0.005,0.12 -0.02017,0.47302 -0.20117,0.66602c-0.09,0.097 -0.21314,0.14448 -0.36914,0.14648h-1.05078v-1.71094zM19.11914,14.90234c0.089,0 0.17858,0.00944 0.26758,0.02344c1.2,0.197 1.96412,1.67878 1.70313,3.30078c-0.148,0.927 -0.62262,1.7577 -1.26562,2.2207c-0.437,0.316 -0.91486,0.44028 -1.38086,0.36328c-1.2,-0.196 -1.96608,-1.67778 -1.70508,-3.30078c0.148,-0.927 0.62262,-1.7567 1.26563,-2.2207c0.354,-0.255 0.73423,-0.38672 1.11523,-0.38672zM26.61719,18.73047h1.37305c0.167,0.092 0.73047,0.44175 0.73047,0.96875c-0.001,0.032 -0.03094,0.78797 -0.71094,1.04297h-1.39258zM3.99023,23.25c-0.252,0 -0.46391,0.18636 -0.50391,0.44336l-1.25781,8.07227c-0.038,0.241 0.03055,0.48302 0.18555,0.66602c0.148,0.174 0.35422,0.26953 0.57422,0.26953c0.018,0 0.03764,0.00005 0.05664,-0.00195l4.58789,-0.3457l0.375,-2.20508h-3.02344l0.9082,-6.24023c0.024,-0.162 -0.02205,-0.32617 -0.12305,-0.45117c-0.105,-0.132 -0.25883,-0.20703 -0.42383,-0.20703zM17.99219,23.4375c-0.547,0.00662 -0.97772,0.04142 -1.01172,0.04492c-2.582,0.185 -3.57433,2.75227 -3.61133,4.44727c0.118,3.212 2.35723,3.63672 2.36523,3.63672c0.444,0.128 0.91153,0.19141 1.39453,0.19141c0.833,0 1.71342,-0.19031 2.60742,-0.57031c0.403,-0.2 0.66274,-0.60559 0.67773,-1.05859l0.09961,-2.79883c0.007,-0.214 -0.07275,-0.42222 -0.21875,-0.57422c-0.146,-0.154 -0.35341,-0.24414 -0.56641,-0.24414l-2.0332,0.00586c-0.407,0 -0.74134,0.30875 -0.77734,0.71875l-0.03711,0.43164c-0.018,0.201 0.04478,0.40364 0.17578,0.55664c0.132,0.153 0.32344,0.24681 0.52344,0.25781l0.56055,0.0293c0.027,0.001 0.05041,0.0142 0.06641,0.0332c0.019,0.022 0.02839,0.05013 0.02539,0.07813l-0.08984,0.81836c-1.115,0.374 -1.847,-0.20552 -1.875,-0.22852c-0.497,-0.43 -0.71847,-1.08583 -0.60547,-1.79883c0.133,-0.838 0.68811,-1.57686 1.41211,-1.88086c0.83,-0.348 1.80436,-0.04739 2.19336,0.09961c0.232,0.082 0.4835,0.04616 0.6875,-0.08984c0.204,-0.135 0.33347,-0.35266 0.35547,-0.59766c0.013,-0.144 0.02448,-0.29425 0.02148,-0.40625c0.038,-0.419 -0.196,-0.80752 -0.625,-0.97852c-0.504,-0.109 -1.16784,-0.12967 -1.71484,-0.12305zM43.54688,23.4375c-0.472,0.041 -0.7523,0.10472 -1.1543,0.26172c-1.422,0.554 -1.40022,1.95803 -1.19922,2.58203c0.141,1.059 1.69481,2.04789 1.75781,2.08789c0.477,0.31 2.01106,1.00662 2.03906,1.01563c0.166,0.112 0.42989,0.33336 0.33789,0.56836c-0.087,0.222 -0.42327,0.39961 -0.69727,0.34961c-0.989,-0.153 -1.5972,-0.36019 -1.9082,-0.49219c-0.188,-0.109 -0.42042,-0.10714 -0.60742,0.00586c-0.186,0.112 -0.29606,0.31711 -0.28906,0.53711c0.012,0.293 0.02502,0.63667 0.04102,0.88867c0.013,0.342 0.22411,0.64916 0.53711,0.78516v0.00195c0.942,0.398 1.83372,0.50391 2.51172,0.50391c0.728,0 1.21381,-0.12081 1.25781,-0.13281c1.347,-0.425 1.70799,-1.53187 1.70898,-2.04687c0.098,-1.961 -1.57081,-2.83133 -1.63281,-2.86133l-0.35937,-0.19922c-0.894,-0.502 -1.68723,-0.94842 -1.99023,-1.10742c-0.222,-0.117 -0.35108,-0.24612 -0.33008,-0.32812c0.044,-0.176 0.50134,-0.38558 0.90234,-0.39258c1.164,0.012 1.93341,0.18941 1.94141,0.19141l0.24023,0.05664l0.40625,-1.58594c0.039,-0.153 0.00611,-0.31345 -0.08789,-0.43945c-0.095,-0.126 -0.24039,-0.19912 -0.40039,-0.20312zM9.9668,23.48828c-0.464,0 -0.86464,0.3505 -0.93164,0.8125l-0.91406,6.33984c-0.034,0.233 0.03645,0.46944 0.18945,0.64844c0.153,0.179 0.37728,0.2832 0.61328,0.2832h3.58594c0.404,0 0.74534,-0.31661 0.77734,-0.72461l0.0293,-0.35742c0.019,-0.234 -0.0617,-0.46572 -0.2207,-0.63672c-0.157,-0.17 -0.37647,-0.26758 -0.60547,-0.26758h-0.00976l-1.56055,0.01758c-0.043,0.006 -0.14341,-0.03094 -0.19141,-0.08594c-0.05,-0.058 -0.07445,-0.13398 -0.06445,-0.20898l0.07813,-0.59961c0.017,-0.125 0.12009,-0.22156 0.24609,-0.22656l1.59961,-0.05859c0.365,-0.014 0.66808,-0.30002 0.70508,-0.66602l0.06055,-0.58398c0.019,-0.178 -0.03925,-0.35528 -0.15625,-0.48828c-0.117,-0.134 -0.2868,-0.2138 -0.4668,-0.2168l-1.41211,-0.01758c-0.064,-0.001 -0.12497,-0.03008 -0.16797,-0.08008c-0.043,-0.05 -0.06364,-0.11464 -0.05664,-0.18164l0.05859,-0.5332c0.012,-0.109 0.10198,-0.19141 0.20898,-0.19141h1.68359c0.374,0 0.6827,-0.28225 0.7207,-0.65625l0.05273,-0.53516c0.021,-0.199 -0.04373,-0.39783 -0.17773,-0.54883c-0.134,-0.149 -0.32539,-0.23633 -0.52539,-0.23633zM22.08984,23.48828c-0.491,0 -0.89916,0.40248 -0.91016,0.89648l-0.13477,6.14648c-0.005,0.241 0.08791,0.47844 0.25391,0.64844c0.167,0.174 0.39963,0.27344 0.64063,0.27344h3.35938c0.455,0 0.82422,-0.37403 0.82422,-0.83203v-0.375c0.001,-0.435 -0.34039,-0.78687 -0.77539,-0.79687l-1.91016,-0.03906c-0.082,-0.001 -0.14844,-0.07125 -0.14844,-0.15625v-0.73242c0,-0.063 0.05133,-0.11619 0.11133,-0.11719l1.47656,-0.01758c0.221,-0.001 0.43684,-0.09486 0.58984,-0.25586c0.152,-0.159 0.23547,-0.37866 0.23047,-0.59766l-0.00586,-0.34375c-0.008,-0.443 -0.37445,-0.80469 -0.81445,-0.80469h-1.30469c-0.108,0 -0.19531,-0.09017 -0.19531,-0.20117v-0.72656c0,-0.086 0.06739,-0.1543 0.15039,-0.1543h1.67383c0.183,0 0.35633,-0.07212 0.48633,-0.20312c0.126,-0.128 0.19922,-0.30633 0.19922,-0.48633v-0.43359c0,-0.185 -0.07117,-0.35628 -0.20117,-0.48828c-0.13,-0.13 -0.30433,-0.20312 -0.48633,-0.20312zM32.22656,23.48828c-0.228,0 -0.45042,0.09667 -0.60742,0.26367c-0.156,0.166 -0.23952,0.39114 -0.22852,0.61914l0.1582,3.3125l-2.77734,-3.875c-0.144,-0.2 -0.37705,-0.31836 -0.62305,-0.31836h-0.87695c-0.502,0 -0.91016,0.41197 -0.91016,0.91797v6.19727c0,0.469 0.3778,0.84961 0.8418,0.84961h0.62695c0.203,0 0.39997,-0.08247 0.54297,-0.23047c0.141,-0.146 0.22084,-0.34773 0.21484,-0.55273l-0.10937,-3.80859l3.22656,4.5918h1.17188c0.266,0 0.52208,-0.10969 0.70508,-0.30469c0.183,-0.193 0.28058,-0.45761 0.26758,-0.72461l-0.29492,-6.11523c-0.022,-0.46 -0.39847,-0.82227 -0.85547,-0.82227zM35.08203,23.48828c-0.275,0 -0.53861,0.12384 -0.72461,0.33984c-0.18,0.211 -0.26909,0.49439 -0.24609,0.77539l0.48242,5.88477c0.045,0.551 0.47405,0.9668 0.99805,0.9668l3.13086,-0.00781c1.873,-0.479 2.3307,-2.07872 2.3457,-2.13672c0.602,-1.878 -0.23797,-3.5473 -0.29297,-3.6543c-0.999,-2.015 -3.09522,-2.16197 -3.19922,-2.16797zM36.58984,25.46484h0.87695c0.245,0.119 1.40122,0.75441 1.44922,2.19141c0.007,0.052 0.16822,1.25698 -0.92578,1.83398h-1.21875c-0.0414,-0.00099 -0.08003,-0.04329 -0.08398,-0.09766l-0.27344,-3.70508c-0.004,-0.061 0.01474,-0.12006 0.05273,-0.16406c0.032,-0.037 0.07705,-0.05859 0.12305,-0.05859zM12.03711,32.67969c-0.167,0 -0.32469,0.07703 -0.42969,0.20703c-0.194,0.241 -0.5212,0.6457 -0.7832,0.9707c-0.231,0.286 -0.21394,0.7008 0.03906,0.9668c0.344,0.36 0.79853,0.83631 1.01953,1.07031c0.085,0.09 0.20122,0.14063 0.32422,0.14063c2.221,-0.005 22.88683,-0.05455 25.42383,-0.06055c0.163,0 0.32055,-0.06369 0.43555,-0.17969c0.237,-0.236 0.66324,-0.66033 0.99023,-0.98633c0.256,-0.255 0.27492,-0.66436 0.04492,-0.94336c-0.272,-0.33 -0.6135,-0.74533 -0.8125,-0.98633c-0.103,-0.125 -0.25692,-0.19922 -0.41992,-0.19922zM25.95703,33.28711l0.9668,0.0332c0.256,0.008 0.48636,0.03261 0.69336,0.09961c0.176,0.056 0.30095,0.14372 0.37695,0.26172c0.041,0.063 0.0625,0.13761 0.0625,0.22461c0,0.142 -0.07747,0.2568 -0.23047,0.3418c-0.064,0.036 -0.13861,0.06303 -0.22461,0.08203c0.144,0.027 0.26719,0.08116 0.36719,0.16016c0.066,0.054 0.11348,0.12398 0.14648,0.20898c0.016,0.044 0.02539,0.09444 0.02539,0.14844c0,0.134 -0.0513,0.24684 -0.1543,0.33984c-0.08,0.073 -0.19284,0.13178 -0.33984,0.17578c-0.165,0.05 -0.32919,0.07422 -0.49219,0.07422h-1.20312zM23.14258,33.29688c0.286,0 0.52756,0.04844 0.72656,0.14844c0.199,0.099 0.30078,0.21938 0.30078,0.35938v0.24219h-0.67383v-0.24805c0,-0.051 -0.03637,-0.09486 -0.10937,-0.13086c-0.073,-0.036 -0.16262,-0.05469 -0.26562,-0.05469c-0.103,0 -0.18872,0.01869 -0.26172,0.05469c-0.072,0.036 -0.10742,0.07986 -0.10742,0.13086v1.1582c0,0.051 0.03542,0.09391 0.10742,0.12891c0.072,0.035 0.15872,0.05273 0.26172,0.05273c0.103,0 0.19262,-0.01774 0.26563,-0.05273c0.073,-0.035 0.10938,-0.07791 0.10938,-0.12891v-0.41797h-0.35937v-0.32031h1.0332v0.74023c0,0.141 -0.10173,0.25942 -0.30273,0.35742c-0.203,0.099 -0.44556,0.14844 -0.72656,0.14844c-0.286,0 -0.52852,-0.04944 -0.72852,-0.14844c-0.2,-0.099 -0.30078,-0.21747 -0.30078,-0.35547v-1.15625c0,-0.141 0.10173,-0.26038 0.30273,-0.35938c0.201,-0.099 0.44452,-0.14844 0.72852,-0.14844zM35.31445,33.29688c0.286,0 0.52952,0.04844 0.72852,0.14844c0.199,0.099 0.29883,0.21938 0.29883,0.35938v0.24219h-0.67383v-0.24805c0,-0.051 -0.03637,-0.09486 -0.10937,-0.13086c-0.073,-0.036 -0.16067,-0.05469 -0.26367,-0.05469c-0.103,0 -0.19067,0.01869 -0.26367,0.05469c-0.072,0.036 -0.10742,0.07986 -0.10742,0.13086v1.1582c0,0.051 0.03542,0.09391 0.10742,0.12891c0.072,0.035 0.16067,0.05273 0.26367,0.05273c0.103,0 0.19067,-0.01774 0.26367,-0.05273c0.073,-0.035 0.10938,-0.07791 0.10938,-0.12891v-0.41797h-0.36133v-0.32031h1.0332v0.74023c0,0.141 -0.10173,0.25942 -0.30273,0.35742c-0.201,0.098 -0.44261,0.14844 -0.72461,0.14844c-0.286,0 -0.52852,-0.04944 -0.72852,-0.14844c-0.2,-0.099 -0.30078,-0.21747 -0.30078,-0.35547v-1.15625c0,-0.141 0.10173,-0.26038 0.30273,-0.35938c0.201,-0.099 0.44452,-0.14844 0.72852,-0.14844zM13.7793,33.31836h0.97266c0.256,0 0.48541,0.03456 0.69141,0.10156c0.176,0.056 0.30291,0.14372 0.37891,0.26172c0.041,0.063 0.0625,0.13761 0.0625,0.22461c0,0.142 -0.07747,0.25484 -0.23047,0.33984c-0.064,0.036 -0.13956,0.06498 -0.22656,0.08398c0.144,0.027 0.26719,0.08116 0.36719,0.16016c0.066,0.054 0.11448,0.12398 0.14648,0.20898c0.016,0.044 0.02539,0.09248 0.02539,0.14648c0,0.134 -0.0513,0.2488 -0.1543,0.3418c-0.08,0.073 -0.19284,0.13178 -0.33984,0.17578c-0.165,0.05 -0.33019,0.07422 -0.49219,0.07422h-1.20117zM19.30273,33.31836h0.72852l0.86133,1.42383v-1.42383h0.64844v2.11914h-0.69727l-0.89258,-1.35742v1.35742h-0.64844zM31.47461,33.31836h0.72852l0.86133,1.42383v-1.42383h0.65039v2.11914h-0.69727l-0.89453,-1.35742v1.35742h-0.64844zM17.14258,33.32031h0.89258l0.7207,2.11719h-0.68164l-0.15234,-0.48633h-0.67578l-0.1582,0.48633h-0.67578zM29.31445,33.32031h0.89258l0.7207,2.11719h-0.68164l-0.15234,-0.48633h-0.67578l-0.1582,0.48633h-0.67578zM14.48047,33.64258v0.54102h0.27148c0.201,0 0.3353,-0.04753 0.4043,-0.14453c0.025,-0.036 0.03711,-0.08177 0.03711,-0.13477c0,-0.088 -0.04286,-0.15422 -0.13086,-0.19922c-0.08,-0.042 -0.18255,-0.0625 -0.31055,-0.0625zM26.65234,33.64258v0.54102h0.27148c0.201,0 0.3353,-0.04753 0.4043,-0.14453c0.025,-0.036 0.03711,-0.08177 0.03711,-0.13477c0,-0.088 -0.04291,-0.15422 -0.12891,-0.19922c-0.08,-0.042 -0.1845,-0.0625 -0.3125,-0.0625zM17.58789,33.80469l-0.24023,0.83594h0.48047zM29.75977,33.80469l-0.24023,0.83594h0.48047zM14.48047,34.49023v0.63086h0.27148c0.22,0 0.37008,-0.05502 0.45508,-0.16602c0.03,-0.038 0.04688,-0.08281 0.04688,-0.13281c0,-0.118 -0.04767,-0.20281 -0.13867,-0.25781c-0.082,-0.049 -0.20328,-0.07422 -0.36328,-0.07422zM26.65234,34.49023v0.63086h0.27148c0.22,0 0.37203,-0.05502 0.45703,-0.16602c0.03,-0.038 0.04492,-0.08281 0.04492,-0.13281c0,-0.118 -0.04767,-0.20281 -0.13867,-0.25781c-0.082,-0.049 -0.20328,-0.07422 -0.36328,-0.07422z"></path></g></g></svg>